# xmcd
#
# Track frame offsets:
#	150
#	17486
#	29443
#	41067
#	52206
#	64437
#	80312
#	88907
#	103590
#	114358
#	128396
#	141839
#	153044
#
# Disc length: 2140 seconds
#
# Revision: 0
# Processed by: cddbd v1.5.1PL0 Copyright (c) Steve Scherf et al.
# Submitted via: dBpowerAMP V4.0
#
DISCID=a6085a0d
DTITLE=Shallow Creek - Like Thunder
DYEAR=2004
DGENRE=Bluegrass
TTITLE0=Like Thunder
TTITLE1=The Only Fire
TTITLE2=Stormy Waters
TTITLE3=Little Mountain Church
TTITLE4=I'D Rather Have Jesus
TTITLE5=On Heaven's Bright shore
TTITLE6=Shield Of Faith
TTITLE7=Until Then
TTITLE8=Come And Dine
TTITLE9=Rank Stranger
TTITLE10=We'll Go Home Together
TTITLE11=The Vision
TTITLE12=National Anthem
EXTD=
EXTT0=
EXTT1=
EXTT2=
EXTT3=
EXTT4=
EXTT5=
EXTT6=
EXTT7=
EXTT8=
EXTT9=
EXTT10=
EXTT11=
EXTT12=
PLAYORDER=
